<svg aria-hidden="true" style="width:30px;height:30px;position:absolute;overflow:hidden" xmlns="http://www.w3.org/2000/svg"><defs><symbol id="icon-up-arrow" viewBox="0 0 32 32"><path fill="#b92f2c" style="fill:var(--color1,#b92f2c)" d="M31 16c0 8.284-6.716 15-15 15S1 24.284 1 16C1 7.716 7.716 1 16 1s15 6.716 15 15z"/><path fill="#fff" style="fill:var(--color2,#fff)" d="M24 15.15 16 7.5l-8 7.65h5.3v9.35h5.15v-9.35z"/></symbol><symbol id="icon-heart" viewBox="0 0 34 32"><path fill="#b92f2c" style="fill:var(--color1,#b92f2c)" d="m17.231 31.705-2.412-2.412C5.859 21.367.001 16.025.001 9.478.001 4.136 4.136.001 9.478.001c2.929 0 5.858 1.378 7.754 3.618 1.895-2.24 4.825-3.618 7.754-3.618 5.342 0 9.477 4.135 9.477 9.477 0 6.548-5.858 11.889-14.818 19.815l-2.412 2.412z"/></symbol><symbol id="icon-search" viewBox="0 0 32 32"><path d="M0 13.317c0 7.345 5.975 13.314 13.314 13.314 3.381 0 6.473-1.271 8.826-3.355l8.485 8.485c.157.157.36.236.57.236s.413-.079.57-.236a.799.799 0 0 0 0-1.134l-8.491-8.485a13.261 13.261 0 0 0 3.355-8.826c0-7.345-5.975-13.314-13.314-13.314S.001 5.971.001 13.316zm25.022 0c0 6.454-5.255 11.708-11.708 11.708S1.606 19.77 1.606 13.317 6.861 1.609 13.314 1.609s11.708 5.248 11.708 11.708z"/></symbol><symbol id="icon-film" viewBox="0 0 31 32"><path fill="none" stroke="#fff" style="stroke:var(--color1,#fff)" stroke-linejoin="round" stroke-linecap="round" stroke-width="1.561" d="M25.783 2.992H5.438a2.836 2.836 0 0 0-2.836 2.836v20.345a2.836 2.836 0 0 0 2.836 2.836h20.345a2.836 2.836 0 0 0 2.836-2.836V5.828a2.836 2.836 0 0 0-2.836-2.836zM9.105 2.992v26.016M22.114 2.992v26.016M2.601 16h26.016M2.602 9.496h6.504M2.602 22.504h6.504M22.114 22.504h6.504M22.114 9.496h6.504"/></symbol><symbol id="icon-close" viewBox="0 0 32 32"><path d="M19.325 16.011 26.65 8.69c.92-.92.92-2.404 0-3.323s-2.404-.92-3.323 0l-7.325 7.321-7.323-7.323c-.92-.92-2.404-.92-3.323 0s-.92 2.404 0 3.323l7.325 7.321-7.325 7.321c-.92.92-.92 2.404 0 3.323.921.92 2.411.92 3.323 0l7.325-7.321 7.325 7.321c.92.92 2.404.92 3.323 0a2.352 2.352 0 0 0-.009-3.325l-7.318-7.318z"/></symbol><symbol id="icon-close-1" viewBox="0 0 32 32"><path stroke-width="2.133" d="m8.533 8.533 14.933 14.933M8.533 23.467 23.466 8.534"/></symbol><symbol id="icon-switch" viewBox="0 0 32 32"><path d="M20 4.581V8.83a10 10 0 0 1 3.071 2.099C24.96 12.818 26 15.329 26 18s-1.04 5.182-2.929 7.071C21.182 26.96 18.671 28 16 28s-5.182-1.04-7.071-2.929C7.04 23.182 6 20.671 6 18s1.04-5.182 2.929-7.071A9.982 9.982 0 0 1 12 8.83V4.581C6.217 6.302 2 11.658 2 18c0 7.732 6.268 14 14 14s14-6.268 14-14c0-6.342-4.217-11.698-10-13.419zM14 0h4v16h-4z"/></symbol></defs></svg>