<svg aria-hidden="true" style="position: absolute; width: 30; height: 30; overflow: hidden;" version="1.1" xmlns="http://www.w3.org/2000/svg" xmlns:xlink="http://www.w3.org/1999/xlink">
<defs>
<symbol id="icon-up-arrow" viewBox="0 0 32 32">
<path fill="#b92f2c" style="fill: var(--color1, #b92f2c)" d="M31 16c0 8.284-6.716 15-15 15s-15-6.716-15-15c0-8.284 6.716-15 15-15s15 6.716 15 15z"></path>
<path fill="#fff" style="fill: var(--color2, #fff)" d="M24 15.15l-8-7.65-8 7.65h5.3v9.35h5.15v-9.35z"></path>
</symbol>

<symbol id="icon-heart" viewBox="0 0 32 32">
<path fill="#b92f2c" stroke-linejoin="round" stroke-linecap="round" stroke-miterlimit="4" stroke-width="2.6667" d="M27.787 6.147c-0.681-0.681-1.49-1.222-2.379-1.591s-1.844-0.559-2.807-0.559-1.917 0.19-2.807 0.559c-0.89 0.369-1.699 0.909-2.38 1.591l-1.413 1.413-1.413-1.413c-1.376-1.376-3.241-2.148-5.187-2.148s-3.811 0.773-5.187 2.148c-1.376 1.376-2.148 3.241-2.148 5.187s0.773 3.811 2.148 5.187l11.787 11.787 11.787-11.787c0.681-0.681 1.222-1.49 1.591-2.38s0.559-1.844 0.559-2.807-0.19-1.917-0.559-2.807c-0.369-0.89-0.909-1.699-1.591-2.38v0z"></path>
</symbol>
</defs>
</svg>
